<svg width="24" height="24" viewBox="0 0 24 24" fill="none" xmlns="http://www.w3.org/2000/svg">
<g clip-path="url(#clip0_2612_1296)">
<path d="M11.0969 19.2869L15.9518 16.8594C20.1929 14.7389 22.3135 13.6786 22.3135 11.9996C22.3135 10.3205 20.1929 9.26023 15.9518 7.13967L11.097 4.71225C7.67396 3.00075 5.96247 2.145 4.97025 2.40768C4.02635 2.65757 3.28914 3.39478 3.03925 4.33869C2.77657 5.3309 3.63232 7.0424 5.34381 10.4654C5.61862 11.015 5.75602 11.2898 5.81297 11.5774C5.86816 11.8561 5.86816 12.143 5.81297 12.4217C5.75602 12.7093 5.61861 12.9841 5.34381 13.5337C3.63232 16.9567 2.77657 18.6682 3.03925 19.6604C3.28914 20.6043 4.02634 21.3415 4.97025 21.5914C5.96247 21.8541 7.67397 20.9984 11.0969 19.2869Z" stroke="#343434" stroke-width="1.5"/>
<path d="M14.2067 12.7503C14.6209 12.7526 14.9586 12.4186 14.9609 12.0044C14.9631 11.5902 14.6292 11.2526 14.215 11.2503L14.2109 12.0003L14.2067 12.7503ZM6.40674 11.957L6.40258 12.707L14.2067 12.7503L14.2109 12.0003L14.215 11.2503L6.41089 11.207L6.40674 11.957Z" fill="#343434"/>
</g>
<defs>
<clipPath id="clip0_2612_1296">
<rect width="24" height="24" fill="white"/>
</clipPath>
</defs>
</svg>
